<mxfile host="app.diagrams.net" agent="Mozilla/5.0 (X11; Linux x86_64) AppleWebKit/537.36 (KHTML, like Gecko) Chrome/141.0.0.0 Safari/537.36" version="28.2.7">
  <diagram name="Page-1" id="-xBFrmKm_jZeMar3V_No">
    <mxGraphModel dx="607" dy="407" grid="1" gridSize="10" guides="1" tooltips="1" connect="1" arrows="1" fold="1" page="1" pageScale="1" pageWidth="850" pageHeight="1100" math="0" shadow="0">
      <root>
        <mxCell id="0" />
        <mxCell id="1" parent="0" />
        <mxCell id="OC8quV6QHte0U2SuTodg-5" value="json config parser class" style="rounded=0;whiteSpace=wrap;html=1;" vertex="1" parent="1">
          <mxGeometry x="150" y="370" width="120" height="60" as="geometry" />
        </mxCell>
        <mxCell id="OC8quV6QHte0U2SuTodg-6" value="&lt;font face=&quot;Helvetica&quot;&gt;server class&lt;/font&gt;" style="rounded=0;whiteSpace=wrap;html=1;" vertex="1" parent="1">
          <mxGeometry x="305" y="370" width="120" height="60" as="geometry" />
        </mxCell>
        <mxCell id="OC8quV6QHte0U2SuTodg-32" style="edgeStyle=orthogonalEdgeStyle;rounded=0;orthogonalLoop=1;jettySize=auto;html=1;entryX=1;entryY=0.5;entryDx=0;entryDy=0;" edge="1" parent="1" source="OC8quV6QHte0U2SuTodg-7" target="OC8quV6QHte0U2SuTodg-31">
          <mxGeometry relative="1" as="geometry" />
        </mxCell>
        <mxCell id="OC8quV6QHte0U2SuTodg-7" value="create server socket and binding" style="rounded=0;whiteSpace=wrap;html=1;" vertex="1" parent="1">
          <mxGeometry x="305" y="470" width="120" height="60" as="geometry" />
        </mxCell>
        <mxCell id="OC8quV6QHte0U2SuTodg-9" value="listen soket" style="rounded=0;whiteSpace=wrap;html=1;" vertex="1" parent="1">
          <mxGeometry x="305" y="570" width="120" height="60" as="geometry" />
        </mxCell>
        <mxCell id="OC8quV6QHte0U2SuTodg-34" style="edgeStyle=orthogonalEdgeStyle;rounded=0;orthogonalLoop=1;jettySize=auto;html=1;entryX=1;entryY=0.5;entryDx=0;entryDy=0;" edge="1" parent="1" source="OC8quV6QHte0U2SuTodg-10" target="OC8quV6QHte0U2SuTodg-33">
          <mxGeometry relative="1" as="geometry" />
        </mxCell>
        <mxCell id="OC8quV6QHte0U2SuTodg-10" value="HandleReq&lt;div&gt;&lt;br&gt;&lt;/div&gt;" style="rounded=0;whiteSpace=wrap;html=1;" vertex="1" parent="1">
          <mxGeometry x="305" y="670" width="120" height="60" as="geometry" />
        </mxCell>
        <mxCell id="OC8quV6QHte0U2SuTodg-31" value="getPort" style="rounded=0;whiteSpace=wrap;html=1;" vertex="1" parent="1">
          <mxGeometry x="150" y="470" width="120" height="60" as="geometry" />
        </mxCell>
        <mxCell id="OC8quV6QHte0U2SuTodg-33" value="getPagesList" style="rounded=0;whiteSpace=wrap;html=1;" vertex="1" parent="1">
          <mxGeometry x="150" y="570" width="120" height="60" as="geometry" />
        </mxCell>
        <mxCell id="OC8quV6QHte0U2SuTodg-37" style="edgeStyle=orthogonalEdgeStyle;rounded=0;orthogonalLoop=1;jettySize=auto;html=1;entryX=1;entryY=0.5;entryDx=0;entryDy=0;" edge="1" parent="1" source="OC8quV6QHte0U2SuTodg-35" target="OC8quV6QHte0U2SuTodg-36">
          <mxGeometry relative="1" as="geometry" />
        </mxCell>
        <mxCell id="OC8quV6QHte0U2SuTodg-35" value="sendPage" style="rounded=0;whiteSpace=wrap;html=1;" vertex="1" parent="1">
          <mxGeometry x="305" y="770" width="120" height="60" as="geometry" />
        </mxCell>
        <mxCell id="OC8quV6QHte0U2SuTodg-36" value="getPage" style="rounded=0;whiteSpace=wrap;html=1;" vertex="1" parent="1">
          <mxGeometry x="150" y="680" width="120" height="60" as="geometry" />
        </mxCell>
        <mxCell id="OC8quV6QHte0U2SuTodg-38" value="start Server&amp;nbsp;&lt;div&gt;try {} catch {}&lt;/div&gt;" style="rounded=0;whiteSpace=wrap;html=1;" vertex="1" parent="1">
          <mxGeometry x="305" y="880" width="120" height="60" as="geometry" />
        </mxCell>
      </root>
    </mxGraphModel>
  </diagram>
</mxfile>
